<svg width="15" height="15" viewBox="0 0 15 15" fill="none" xmlns="http://www.w3.org/2000/svg">
<g id="github">
<path id="Vector" d="M7.45854 1.42932C6.65463 1.42932 5.8586 1.58766 5.11588 1.8953C4.37317 2.20295 3.69832 2.65386 3.12987 3.22231C1.98184 4.37035 1.33688 5.92741 1.33688 7.55098C1.33688 10.2567 3.0938 12.5524 5.5241 13.3665C5.83018 13.4155 5.92812 13.2258 5.92812 13.0605C5.92812 12.9197 5.92812 12.534 5.92812 12.0259C4.23243 12.3932 3.87125 11.2056 3.87125 11.2056C3.58965 10.4955 3.19175 10.3057 3.19175 10.3057C2.63467 9.92618 3.2346 9.93842 3.2346 9.93842C3.84676 9.98127 4.17121 10.569 4.17121 10.569C4.70379 11.4994 5.60368 11.224 5.95261 11.077C6.00771 10.6791 6.16687 10.4098 6.33828 10.2567C4.97927 10.1037 3.55292 9.57724 3.55292 7.24489C3.55292 6.56539 3.78555 6.02056 4.18345 5.58593C4.12224 5.43288 3.90798 4.79623 4.24467 3.96981C4.24467 3.96981 4.75889 3.80452 5.92812 4.59422C6.41174 4.45954 6.9382 4.3922 7.45854 4.3922C7.97888 4.3922 8.50534 4.45954 8.98895 4.59422C10.1582 3.80452 10.6724 3.96981 10.6724 3.96981C11.0091 4.79623 10.7948 5.43288 10.7336 5.58593C11.1315 6.02056 11.3642 6.56539 11.3642 7.24489C11.3642 9.58337 9.93169 10.0976 8.56656 10.2506C8.78694 10.4404 8.98895 10.8138 8.98895 11.3831C8.98895 12.2034 8.98895 12.8646 8.98895 13.0605C8.98895 13.2258 9.0869 13.4216 9.3991 13.3665C11.8294 12.5462 13.5802 10.2567 13.5802 7.55098C13.5802 6.74707 13.4219 5.95103 13.1142 5.20832C12.8066 4.46561 12.3557 3.79076 11.7872 3.22231C11.2188 2.65386 10.5439 2.20295 9.80119 1.8953C9.05848 1.58766 8.26245 1.42932 7.45854 1.42932Z" fill="#DDDDDD"/>
</g>
</svg>
