<svg width="16" height="15" viewBox="0 0 16 15" fill="none" xmlns="http://www.w3.org/2000/svg">
<g id="linkedin">
<path id="Vector" d="M11.6031 2.0415C11.9278 2.0415 12.2392 2.1705 12.4688 2.4001C12.6984 2.62971 12.8274 2.94112 12.8274 3.26583V11.8362C12.8274 12.1609 12.6984 12.4723 12.4688 12.7019C12.2392 12.9315 11.9278 13.0605 11.6031 13.0605H3.03274C2.70803 13.0605 2.39662 12.9315 2.16701 12.7019C1.9374 12.4723 1.80841 12.1609 1.80841 11.8362V3.26583C1.80841 2.94112 1.9374 2.62971 2.16701 2.4001C2.39662 2.1705 2.70803 2.0415 3.03274 2.0415H11.6031ZM11.297 11.5301V8.28559C11.297 7.75631 11.0867 7.24871 10.7125 6.87445C10.3382 6.50019 9.8306 6.28993 9.30132 6.28993C8.78098 6.28993 8.17493 6.60826 7.88109 7.08575V6.40624H6.17315V11.5301H7.88109V8.51209C7.88109 8.04073 8.26064 7.65506 8.732 7.65506C8.9593 7.65506 9.17729 7.74536 9.33802 7.90608C9.49874 8.06681 9.58903 8.28479 9.58903 8.51209V11.5301H11.297ZM4.18361 5.44514C4.45637 5.44514 4.71796 5.33679 4.91083 5.14392C5.1037 4.95105 5.21205 4.68946 5.21205 4.41671C5.21205 3.84739 4.75293 3.38215 4.18361 3.38215C3.90923 3.38215 3.64609 3.49114 3.45207 3.68516C3.25805 3.87918 3.14905 4.14232 3.14905 4.41671C3.14905 4.98602 3.6143 5.44514 4.18361 5.44514ZM5.03452 11.5301V6.40624H3.33882V11.5301H5.03452Z" fill="#DDDDDD"/>
</g>
</svg>
